<?xml version="1.0" encoding="UTF-8"?>
<svg width="22px" height="25px" viewBox="0 0 22 25" version="1.1" xmlns="http://www.w3.org/2000/svg" xmlns:xlink="http://www.w3.org/1999/xlink">
    <!-- Generator: Sketch 42 (36781) - http://www.bohemiancoding.com/sketch -->
    <title>Group 5guide</title>
    <desc>Created with Sketch.</desc>
    <defs>
        <path d="M0,3.23875837 L14.8812572,3.23875837 C16.5334156,3.23875837 17.8727545,4.58496473 17.8727545,6.23544865 L17.8727545,21.0033097 C17.8727545,22.6583361 16.5293931,24 14.8812572,24 L2.99149726,24 C1.33933895,24 0,22.6537936 0,21.0033097 L0,3.23875837 Z" id="path-1"></path>
        <mask id="mask-2" maskContentUnits="userSpaceOnUse" maskUnits="objectBoundingBox" x="0" y="0" width="17.8727545" height="20.7612416" fill="white">
            <use xlink:href="#path-1"></use>
        </mask>
    </defs>
    <g id="Page-1-Copy" stroke="none" stroke-width="1" fill="none" fill-rule="evenodd">
        <g id="Guides-Overview" transform="translate(-434.000000, -22.000000)" stroke="#FFFFFF">
            <g id="Top">
                <g id="Guide" transform="translate(434.000000, 23.000000)">
                    <g id="Group-5">
                        <use id="Rectangle-9" mask="url(#mask-2)" stroke-width="2" xlink:href="#path-1"></use>
                        <path d="M1.19129267,1.81014321 L16.1560431,1.81014321 C17.8174711,1.81014321 19.1643246,3.15003162 19.1643246,4.80142314 L19.1643246,22.2312891" id="Path-14"></path>
                        <path d="M2.71545281,0.370143205 L17.6802033,0.370143205 C19.3416312,0.370143205 20.6884847,1.71003162 20.6884847,3.36142314 L20.6884847,20.7912891" id="Path-14"></path>
                    </g>
                </g>
            </g>
        </g>
    </g>
</svg>