<?xml version="1.0" encoding="utf-8"?>
<!-- Generator: Adobe Illustrator 20.1.0, SVG Export Plug-In . SVG Version: 6.00 Build 0)  -->
<svg version="1.1" id="Layer_1" xmlns="http://www.w3.org/2000/svg" xmlns:xlink="http://www.w3.org/1999/xlink" x="0px" y="0px"
	 viewBox="0 0 17.4 17" style="enable-background:new 0 0 17.4 17;" xml:space="preserve">
<path fill="#029BC9" d="M8.7,0C3.9,0,0,3.9,0,8.7c0,3.8,2.5,7.1,6,8.3c0.4,0.1,0.6-0.2,0.6-0.4c0-0.2,0-0.8,0-1.5c-2.4,0.5-2.9-1.2-2.9-1.2
	c-0.4-1-1-1.3-1-1.3c-0.8-0.5,0.1-0.5,0.1-0.5C3.6,12.2,4,13,4,13c0.8,1.3,2,0.9,2.5,0.7c0.1-0.6,0.3-0.9,0.6-1.2
	c-1.9-0.2-4-1-4-4.3c0-1,0.3-1.7,0.9-2.3C4,5.7,3.7,4.8,4.1,3.6c0,0,0.7-0.2,2.4,0.9C7.2,4.3,8,4.2,8.7,4.2c0.7,0,1.5,0.1,2.2,0.3
	c1.7-1.1,2.4-0.9,2.4-0.9c0.5,1.2,0.2,2.1,0.1,2.3c0.6,0.6,0.9,1.4,0.9,2.3c0,3.3-2,4.1-4,4.3c0.3,0.3,0.6,0.8,0.6,1.6
	c0,1.2,0,2.1,0,2.4c0,0.2,0.2,0.5,0.6,0.4c3.5-1.2,5.9-4.4,5.9-8.3C17.4,3.9,13.5,0,8.7,0z"/>
</svg>
