<?xml version="1.0" encoding="UTF-8"?>
<svg width="15px" height="14px" viewBox="0 0 15 14" version="1.1" xmlns="http://www.w3.org/2000/svg" xmlns:xlink="http://www.w3.org/1999/xlink">
    <!-- Generator: Sketch 42 (36781) - http://www.bohemiancoding.com/sketch -->
    <title>Group 24</title>
    <desc>Created with Sketch.</desc>
    <defs>
        <polygon id="path-1" points="7.42115199 -0.912181344 10.0878187 -0.912181344 10.0878187 9.08781866 8.75448532 11.7544853 7.42115199 9.08781866"></polygon>
        <mask id="mask-2" maskContentUnits="userSpaceOnUse" maskUnits="objectBoundingBox" x="0" y="0" width="2.66666667" height="12.6666667" fill="white">
            <use xlink:href="#path-1"></use>
        </mask>
        <path d="M0,9.61601563 C0,9.61601563 0,8.27195632 0,6.61689716 L0,4.99911846 C0,3.34275107 1.34162278,2 2.99715203,2 L9.00284797,2 C10.6581293,2 12,3.34162278 12,4.99715203 L12,11.002848 C12,12.6581293 10.6591322,14 9.00662384,14 L7.19337616,14" id="path-3"></path>
        <mask id="mask-4" maskContentUnits="userSpaceOnUse" maskUnits="objectBoundingBox" x="0" y="0" width="12" height="12" fill="white">
            <use xlink:href="#path-3"></use>
        </mask>
    </defs>
    <g id="Page-1-Copy" stroke="none" stroke-width="1" fill="none" fill-rule="evenodd">
        <g id="Choose-Platform" transform="translate(-1131.000000, -112.000000)" stroke="#FFFFFF" stroke-width="2">
            <g id="Group-28" transform="translate(1120.000000, 107.000000)">
                <g id="Group-21" transform="translate(11.000000, 3.000000)">
                    <g id="Group-24" transform="translate(0.000000, 2.000000)">
                        <use id="Rectangle-21" mask="url(#mask-2)" transform="translate(8.754485, 5.421152) rotate(-315.000000) translate(-8.754485, -5.421152) " xlink:href="#path-1"></use>
                        <use id="Rectangle-22" mask="url(#mask-4)" transform="translate(6.000000, 8.000000) rotate(-180.000000) translate(-6.000000, -8.000000) " xlink:href="#path-3"></use>
                    </g>
                </g>
            </g>
        </g>
    </g>
</svg>