<?xml version="1.0" encoding="UTF-8"?>
<svg width="17px" height="20px" viewBox="0 0 17 20" version="1.1" xmlns="http://www.w3.org/2000/svg" xmlns:xlink="http://www.w3.org/1999/xlink">
    <!-- Generator: Sketch 42 (36781) - http://www.bohemiancoding.com/sketch -->
    <title>Group 11</title>
    <desc>Created with Sketch.</desc>
    <defs>
        <path d="M4.85220018,3.55271368e-15 L13.9860291,3.55271368e-15 C15.6413145,3.55271368e-15 16.9831885,1.34094755 16.9831885,2.99973279 L16.9831885,16.9650644 C16.9831885,18.6217711 15.6363505,19.9647972 13.9860291,19.9647972 L2.99715936,19.9647972 C1.34187395,19.9647972 0,18.6238497 0,16.9650644 L0,5.39602151 L4.85220018,3.49720253e-15 Z" id="path-1"></path>
        <mask id="mask-2" maskContentUnits="userSpaceOnUse" maskUnits="objectBoundingBox" x="0" y="0" width="16.9831885" height="19.9647972" fill="white">
            <use xlink:href="#path-1"></use>
        </mask>
    </defs>
    <g id="Page-1-Copy" stroke="none" stroke-width="1" fill="none" fill-rule="evenodd">
        <g id="Mobile--Top-Menu" transform="translate(-170.000000, -110.000000)" stroke="#4A4A4A">
            <g id="Group-15" transform="translate(153.000000, 56.000000)">
                <g id="Group-13" transform="translate(17.000000, 54.000000)">
                    <g id="Group-11">
                        <use id="Combined-Shape" mask="url(#mask-2)" stroke-width="2" xlink:href="#path-1"></use>
                        <path d="M5.10317605,0.0176013984 L5.10317605,3.04583207 C5.10317605,4.43191408 3.98631752,5.55555556 2.58696284,5.55555556 L0.0707496236,5.55555556" id="Path-7" stroke-linejoin="round"></path>
                        <path d="M5.82479892,13.0255742 C5.86949558,12.9468839 5.8727821,12.8872397 5.83202926,12.8020337 C5.74477218,12.6200938 5.6714828,12.4304686 5.60295888,12.2401752 C5.57568077,12.1648264 5.53920041,12.1227246 5.46278884,12.1015066 C5.18442068,12.0241529 4.9085174,11.9379445 4.62965626,11.8624285 C4.55439497,11.8420459 4.53221097,11.8093001 4.53319693,11.7322805 C4.53714075,11.3971369 4.53763373,11.061659 4.53286827,10.7265154 C4.53171799,10.6463215 4.56146099,10.6185878 4.63277845,10.5987064 C4.90670982,10.5225221 5.17801197,10.4359796 5.45243631,10.3616331 C5.53459928,10.3394127 5.57469482,10.3011536 5.60410916,10.2189548 C5.67361904,10.0243176 5.76317668,9.83703139 5.83400117,9.64272826 C5.85372028,9.58859738 5.8570068,9.50890469 5.83186493,9.46028714 C5.68314995,9.17259153 5.52375377,8.89040925 5.37175226,8.61357323 C5.65406425,8.32721419 5.93111781,8.04603433 6.21638766,7.75650094 C6.48111677,7.90569501 6.75817033,8.05772927 7.03029411,8.21811707 C7.10473376,8.26188957 7.15797537,8.26155543 7.23652318,8.22396454 C7.4208969,8.13591832 7.61578748,8.07076078 7.80147581,7.98538769 C7.85290983,7.96166367 7.90960228,7.9068645 7.92603488,7.85407019 C8.01444224,7.5702172 8.09315437,7.2830228 8.17022324,6.99566133 C8.18862775,6.92732945 8.21787777,6.90210178 8.28903091,6.90277007 C8.6232699,6.90627855 8.95750888,6.90611148 9.29174787,6.90293714 C9.36207938,6.90226886 9.39100075,6.92499046 9.40973391,6.9958284 C9.48433789,7.27918018 9.56945873,7.55969175 9.64504867,7.84270938 C9.66723268,7.92574348 9.70962877,7.96533922 9.78981984,7.99440951 C9.98175255,8.06407796 10.1666192,8.15396195 10.3582233,8.22463282 C10.4113006,8.24418009 10.4890268,8.24551665 10.5371743,8.21995485 C10.8165284,8.07059371 11.0902954,7.9108742 11.3614333,7.75716922 C11.6383225,8.04252585 11.9130755,8.32554348 12.2027821,8.62426575 C12.0709927,8.86468037 11.9316443,9.1306568 11.7806288,9.38961627 C11.7158843,9.50071823 11.7060248,9.58776202 11.7715908,9.70805287 C11.8591766,9.86860774 11.9203058,10.0457026 11.9788059,10.2204585 C12.005098,10.2991487 12.0412497,10.337742 12.1186472,10.3592942 C12.3925786,10.4351442 12.6638808,10.5218539 12.9384694,10.5956991 C13.0188248,10.6174183 13.044624,10.6513336 13.0434737,10.7343677 C13.0392012,11.0650005 13.0393656,11.3958003 13.0434737,11.7266001 C13.0444597,11.8076294 13.0222757,11.8450532 12.9410986,11.8667724 C12.6663456,11.9399493 12.3942219,12.0238188 12.1206192,12.1013395 C12.0474941,12.1220563 12.0069056,12.1578094 11.9791345,12.2383374 C11.9101176,12.4378198 11.8172734,12.6287815 11.7433268,12.8267602 C11.7249223,12.8765472 11.722786,12.9500583 11.7461203,12.9951673 C11.880046,13.2554634 12.021202,13.5120838 12.1658088,13.7663653 C12.205247,13.8358667 12.2078762,13.8784697 12.1465827,13.9386151 C11.9125825,14.1683372 11.6831835,14.4029044 11.456085,14.6398105 C11.4007072,14.697784 11.3604473,14.7089778 11.2873222,14.6655394 C11.0380398,14.5171807 10.7851421,14.3745024 10.5292866,14.2381728 C10.4850829,14.2146158 10.4136012,14.2164536 10.3649607,14.2346643 C10.1779577,14.3046669 9.99752784,14.3938826 9.80937462,14.4603767 C9.71538018,14.4936237 9.66509644,14.5383987 9.63979024,14.638474 C9.57126632,14.9094625 9.48795306,15.1764414 9.41696425,15.4467616 C9.3964235,15.5247836 9.36618753,15.5566941 9.28221697,15.5555246 C8.95241478,15.5505125 8.62261259,15.5511808 8.29297473,15.5550234 C8.21541288,15.5558588 8.18665584,15.5269555 8.16693672,15.4526091 C8.09299005,15.1737682 8.00737622,14.8981017 7.9344155,14.6189267 C7.91206717,14.5335536 7.86704186,14.4964639 7.78964434,14.4668924 C7.59048128,14.3907082 7.39690531,14.2999889 7.19790658,14.2234706 C7.15715374,14.2077659 7.09503853,14.2131122 7.05625761,14.2341631 C6.79744423,14.3748365 6.54356064,14.524866 6.28441861,14.6647041 C6.25023881,14.6832489 6.17744241,14.6807428 6.15262919,14.6563505 C5.88954334,14.3985606 5.63270188,14.134589 5.36452192,13.8624309 C5.52096023,13.5767402 5.66934657,13.2990688 5.82479892,13.0255742 Z M8.80534305,12.5831712 C9.53138079,12.5831712 10.1199507,11.9847707 10.1199507,11.2466062 C10.1199507,10.5084418 9.53138079,9.91004125 8.80534305,9.91004125 C8.07930531,9.91004125 7.49073543,10.5084418 7.49073543,11.2466062 C7.49073543,11.9847707 8.07930531,12.5831712 8.80534305,12.5831712 Z" id="Combined-Shape"></path>
                    </g>
                </g>
            </g>
        </g>
    </g>
</svg>