<?xml version="1.0" encoding="utf-8"?>
<!-- Generator: Adobe Illustrator 20.1.0, SVG Export Plug-In . SVG Version: 6.00 Build 0)  -->
<svg version="1.1" id="Layer_1" xmlns="http://www.w3.org/2000/svg" xmlns:xlink="http://www.w3.org/1999/xlink" x="0px" y="0px"
	 viewBox="0 0 16 16" style="enable-background:new 0 0 16 16;" xml:space="preserve">
<g>
	<g>
		<path fill="#029BC9"  d="M14.6,16H1.3C0.6,16,0,15.4,0,14.7V1.4C0,0.6,0.6,0,1.3,0h7.4C9,0,9.3,0.3,9.3,0.6S9,1.2,8.7,1.2H1.3
			c-0.1,0-0.2,0.1-0.2,0.2v13.3c0,0.1,0.1,0.2,0.2,0.2h13.3c0.1,0,0.2-0.1,0.2-0.2V7.3c0-0.3,0.3-0.6,0.6-0.6S16,7,16,7.3v7.4
			C16,15.4,15.4,16,14.6,16z"/>
	</g>
	<g>
		<path fill="#029BC9"  d="M4.2,12.5c-0.2,0-0.3-0.1-0.4-0.2c-0.2-0.2-0.2-0.6,0-0.8L13.9,1.4c0.2-0.2,0.6-0.2,0.8,0C15,1.6,15,2,14.7,2.2L4.6,12.4
			C4.5,12.5,4.3,12.5,4.2,12.5z"/>
	</g>
	<g>
		<path fill="#029BC9"  d="M16,4.7V0.8C16,0.4,15.6,0,15.2,0h-3.9c-0.4,0-0.6,0.5-0.3,0.8L15.2,5C15.5,5.3,16,5.1,16,4.7z"/>
		<path fill="#029BC9"  d="M15.5,5.2c-0.1,0-0.2,0-0.3-0.1L11,0.8c-0.1-0.1-0.2-0.3-0.1-0.5C11,0.1,11.1,0,11.3,0h3.9C15.6,0,16,0.4,16,0.8v3.9
			c0,0.2-0.1,0.4-0.3,0.4C15.6,5.1,15.6,5.2,15.5,5.2z M11.3,0.1c-0.2,0-0.3,0.1-0.4,0.3c-0.1,0.2,0,0.3,0.1,0.4L15.2,5
			c0.1,0.1,0.3,0.2,0.4,0.1c0.2-0.1,0.3-0.2,0.3-0.4V0.8c0-0.4-0.3-0.7-0.7-0.7H11.3z"/>
	</g>
</g>
</svg>
