<?xml version="1.0" encoding="UTF-8"?>
<svg width="21px" height="24px" viewBox="0 0 21 24" version="1.1" xmlns="http://www.w3.org/2000/svg" xmlns:xlink="http://www.w3.org/1999/xlink">
    <!-- Generator: Sketch 42 (36781) - http://www.bohemiancoding.com/sketch -->
    <title>Group 11</title>
    <desc>Created with Sketch.</desc>
    <defs>
        <path d="M5.82264021,-3.55271368e-15 L17.3727126,-3.55271368e-15 C19.0334956,-3.55271368e-15 20.3798262,1.33940893 20.3798262,2.99790724 L20.3798262,20.9598494 C20.3798262,22.6155479 19.0426488,23.9577566 17.3727126,23.9577566 L3.00711354,23.9577566 C1.34633059,23.9577566 0,22.6183477 0,20.9598494 L0,6.47522581 L5.82264021,-3.38618023e-15 Z" id="path-1"></path>
        <mask id="mask-2" maskContentUnits="userSpaceOnUse" maskUnits="objectBoundingBox" x="0" y="0" width="20.3798262" height="23.9577566" fill="white">
            <use xlink:href="#path-1"></use>
        </mask>
    </defs>
    <g id="Update_21Feb2017" stroke="none" stroke-width="1" fill="none" fill-rule="evenodd">
        <g id="Guides---Wide" transform="translate(-1114.000000, -28.000000)" stroke="#FFFFFF">
            <g id="Group-29" transform="translate(1114.000000, 28.000000)">
                <g id="Group-11" transform="translate(0.077799, 0.000000)">
                    <use id="Combined-Shape" mask="url(#mask-2)" stroke-width="2" xlink:href="#path-1"></use>
                    <path d="M6.12381126,0.0211216781 L6.12381126,3.67438695 C6.12381126,5.3269774 4.78358102,6.66666667 3.12204744,6.66666667 L0.0848995483,6.66666667" id="Path-7" stroke-linejoin="round"></path>
                    <path d="M6.9897587,15.630689 C7.04339469,15.5362607 7.04733851,15.4646877 6.99843511,15.3624404 C6.89372661,15.1441126 6.80577936,14.9165624 6.72355066,14.6882102 C6.69081693,14.5977916 6.64704049,14.5472695 6.55534661,14.5218079 C6.22130481,14.4289835 5.89022088,14.3255333 5.55558751,14.2349142 C5.46527397,14.2104551 5.43865317,14.1711601 5.43983631,14.0787366 C5.4445689,13.6765642 5.44516047,13.2739909 5.43944193,12.8718185 C5.43806159,12.7755858 5.47375319,12.7423053 5.55933415,12.7184476 C5.88805178,12.6270266 6.21361436,12.5231755 6.54292357,12.4339598 C6.64151914,12.4072953 6.68963378,12.3613843 6.72493099,12.2627458 C6.80834285,12.0291811 6.91581202,11.8044377 7.0008014,11.5712739 C7.02446434,11.5063169 7.02840816,11.4106856 6.99823792,11.3523446 C6.81977993,11.0071098 6.62850453,10.6684911 6.44610272,10.3362879 C6.7848771,9.99265702 7.11734137,9.6552412 7.4596652,9.30780113 C7.77734013,9.48683401 8.1098044,9.66927513 8.43635293,9.86174048 C8.52568052,9.91426749 8.58957045,9.91386652 8.68382781,9.86875745 C8.90507628,9.76310199 9.13894497,9.68491294 9.36177097,9.58246523 C9.42349179,9.5539964 9.49152274,9.4882374 9.51124185,9.42488422 C9.61733069,9.08426064 9.71178525,8.73962736 9.80426789,8.3947936 C9.8263533,8.31279534 9.86145332,8.28252214 9.94683709,8.28332408 C10.3479239,8.28753426 10.7490107,8.28733378 11.1500974,8.28352457 C11.2344953,8.28272263 11.2692009,8.30998855 11.2916807,8.39499408 C11.3812055,8.73501621 11.4833505,9.0716301 11.5740584,9.41125126 C11.6006792,9.51089218 11.6515545,9.55840706 11.7477838,9.59329141 C11.9781031,9.67689355 12.1999431,9.78475434 12.429868,9.86955939 C12.4935607,9.8930161 12.5868321,9.89461998 12.6446091,9.86394582 C12.9798341,9.68471245 13.3083545,9.49304904 13.6337199,9.30860307 C13.965987,9.65103102 14.2956906,9.99065217 14.6433386,10.3491189 C14.4851913,10.6376164 14.3179732,10.9567882 14.1367545,11.2675395 C14.0590612,11.4008619 14.0472297,11.5053144 14.125909,11.6496634 C14.2310119,11.8423293 14.304367,12.0548431 14.374567,12.2645502 C14.4061176,12.3589785 14.4494997,12.4052905 14.5423767,12.431153 C14.8710943,12.5221731 15.1966569,12.6262246 15.5261633,12.7148389 C15.6225898,12.7409019 15.6535488,12.7816003 15.6521684,12.8812412 C15.6470415,13.2780005 15.6472387,13.6749603 15.6521684,14.0719201 C15.6533516,14.1691552 15.6267308,14.2140638 15.5293184,14.2401268 C15.1996148,14.3279392 14.8730662,14.4285825 14.544743,14.5216074 C14.4569929,14.5464675 14.4082867,14.5893713 14.3749614,14.6860049 C14.2921411,14.9253837 14.1807281,15.1545378 14.0919921,15.3921122 C14.0699067,15.4518566 14.0673432,15.5400699 14.0953444,15.5942008 C14.2560551,15.906556 14.4254423,16.2145006 14.5989705,16.5196384 C14.6462964,16.6030401 14.6494515,16.6541637 14.5758992,16.7263382 C14.295099,17.0020047 14.0198202,17.2834853 13.747302,17.5677727 C13.6808486,17.6373409 13.6325368,17.6507733 13.5447867,17.5986473 C13.2456477,17.4206168 12.9421706,17.2494029 12.6351439,17.0858073 C12.5820995,17.057539 12.4963214,17.0597443 12.4379528,17.0815971 C12.2135493,17.1656003 11.9970334,17.2726591 11.7712495,17.352452 C11.6584562,17.3923485 11.5981157,17.4460784 11.5677483,17.5661688 C11.4855196,17.891355 11.3855437,18.2117297 11.3003571,18.536114 C11.2757082,18.6297403 11.239425,18.6680329 11.1386604,18.6666295 C10.7428977,18.660615 10.3471351,18.6614169 9.95156968,18.6660281 C9.85849546,18.6670305 9.82398701,18.6323466 9.80032407,18.5431309 C9.71158805,18.2085219 9.60885147,17.8777221 9.5212986,17.5427121 C9.49448061,17.4402644 9.44045023,17.3957567 9.3475732,17.3602709 C9.10857754,17.2688499 8.87628637,17.1599867 8.6374879,17.0681647 C8.58858449,17.0493191 8.51404624,17.0557346 8.46750913,17.0809957 C8.15693308,17.2498038 7.85227276,17.4298391 7.54130233,17.5976449 C7.50028657,17.6198987 7.41293089,17.6168914 7.38315503,17.5876206 C7.06745201,17.2782727 6.75924225,16.9615068 6.43742631,16.6349171 C6.62515228,16.2920882 6.80321588,15.9588826 6.9897587,15.630689 Z M10.5664117,15.0998054 C11.437657,15.0998054 12.1439408,14.3817248 12.1439408,13.4959275 C12.1439408,12.6101301 11.437657,11.8920495 10.5664117,11.8920495 C9.69516637,11.8920495 8.98888251,12.6101301 8.98888251,13.4959275 C8.98888251,14.3817248 9.69516637,15.0998054 10.5664117,15.0998054 Z" id="Combined-Shape"></path>
                </g>
            </g>
        </g>
    </g>
</svg>