<?xml version="1.0" encoding="UTF-8"?>
<svg width="33px" height="38px" viewBox="0 0 33 38" version="1.1" xmlns="http://www.w3.org/2000/svg" xmlns:xlink="http://www.w3.org/1999/xlink">
    <!-- Generator: Sketch 49.2 (51160) - http://www.bohemiancoding.com/sketch -->
    <title>Fill 1 Copy 2</title>
    <desc>Created with Sketch.</desc>
    <defs></defs>
    <g id="Page-1-Copy" stroke="none" stroke-width="1" fill="none" fill-rule="evenodd">
        <path d="M31.5322911,14.8628457 C31.5320953,13.6357401 30.5354798,12.6412148 29.3060139,12.6414102 C28.076646,12.6405307 27.0801284,13.636815 27.0804222,14.8640184 L27.0819889,24.1686983 C27.0818909,25.3970744 28.0780168,26.3898407 29.3082661,26.3902316 C30.537634,26.3900361 31.533662,25.3970744 31.5339557,24.1677211 L31.5322911,14.8628457 Z M6.31658808,13.0639638 L6.32001523,27.483457 C6.31893813,28.7950929 7.3819424,29.8537244 8.69552036,29.8540175 L10.3130376,29.8547016 L10.3148981,34.7778804 C10.3146043,36.0034225 11.3129823,37 12.5396086,37 C13.7698578,37 14.7664733,36.0026407 14.7667671,34.7763168 L14.765592,29.8541153 L17.7713013,29.8535289 L17.7725742,34.7765123 C17.7722804,36.0014681 18.771246,36.9996091 19.998068,36.9976547 C21.2282194,36.9984364 22.2254223,36.0010772 22.2252265,34.7745578 L22.2238556,29.8528449 L23.8470522,29.8516722 C25.1573989,29.8521608 26.2233407,28.7919658 26.2236344,27.4803298 L26.2211865,13.0606412 L6.31658808,13.0639638 Z M20.8313553,8.66360214 C20.3677107,8.66409076 19.9903325,8.28893279 19.9904304,7.82455386 C19.9919971,7.36486564 20.3672211,6.98540786 20.831747,6.98374657 C21.2928456,6.98511469 21.6711052,7.36447475 21.6707135,7.8251402 C21.6717906,8.28844417 21.294804,8.66369986 20.8313553,8.66360214 L20.8313553,8.66360214 Z M11.6997608,8.66526343 C11.2378788,8.66418848 10.8616755,8.28951912 10.8615776,7.82670377 C10.8617735,7.36564742 11.2370954,6.98658054 11.7004462,6.98667826 C12.1654616,6.98628737 12.541567,7.36564742 12.5421545,7.82650832 C12.5423503,8.28903051 12.1653637,8.66497026 11.6997608,8.66526343 L11.6997608,8.66526343 Z M21.1799455,4.28903935 L22.7339136,1.45693381 C22.8167527,1.30898143 22.7624079,1.12047408 22.612005,1.03692106 C22.4605249,0.95678833 22.2732066,1.01121995 22.1931092,1.16024728 L20.623572,4.02186511 C19.3025523,3.43543037 17.8248627,3.10620213 16.2610048,3.10796114 C14.7012595,3.10669074 13.2239617,3.43445314 11.9087191,4.01756531 L10.3375173,1.16347213 C10.2556574,1.01288124 10.0678495,0.958449618 9.91940489,1.04043908 C9.76812066,1.12164676 9.71299249,1.31044728 9.79671289,1.45810648 L11.3513664,4.28806212 C8.29679584,5.86032484 6.23306352,8.85406395 6.23472813,12.2911716 L26.2894357,12.2891194 C26.2900233,8.85250039 24.2300118,5.86501554 21.1799455,4.28903935 L21.1799455,4.28903935 Z M3.22617928,12.6444396 C1.99671339,12.6438533 1.00029376,13.6403331 1,14.866266 L1.00166462,24.1707505 C1.00195837,25.4008856 1.99876968,26.3934564 3.22833349,26.393261 C4.45858272,26.3933587 5.45519819,25.4002015 5.45392525,24.1708482 L5.45412109,14.8649957 C5.45363149,13.6393558 4.45574308,12.6435601 3.22617928,12.6444396 L3.22617928,12.6444396 Z" id="Fill-1-Copy-2" stroke="#000000"></path>
    </g>
</svg>