<?xml version="1.0" encoding="UTF-8"?>
<svg width="31px" height="38px" viewBox="0 0 31 38" version="1.1" xmlns="http://www.w3.org/2000/svg" xmlns:xlink="http://www.w3.org/1999/xlink">
    <!-- Generator: Sketch 49.2 (51160) - http://www.bohemiancoding.com/sketch -->
    <title>Fill 1 Copy 9</title>
    <desc>Created with Sketch.</desc>
    <defs></defs>
    <g id="Page-1-Copy" stroke="none" stroke-width="1" fill="none" fill-rule="evenodd">
        <path d="M25.4827754,20.1281606 C25.4374238,15.5691868 29.2008997,13.3825563 29.3691223,13.2740993 C27.25465,10.1793831 23.9604221,9.75575035 22.786643,9.7066195 C19.9830205,9.42273283 17.3165073,11.3569415 15.8933826,11.3569415 C14.4744766,11.3569415 12.2788813,9.74854332 9.95391101,9.79073081 C6.8983061,9.83608237 4.08070896,11.5674395 2.50720339,14.3040894 C-0.667493292,19.8129848 1.69421526,27.9741552 4.78857993,32.4421622 C6.30064996,34.6291442 8.10337424,37.0855989 10.4706199,36.9977083 C12.7502386,36.9067415 13.6123576,35.5228159 16.3685192,35.5228159 C19.1244171,35.5228159 19.8989092,36.9977083 22.3115064,36.9523567 C24.7645333,36.9067415 26.3187029,34.7235387 27.8204019,32.5300528 C29.556593,29.9929146 30.2714073,27.5363721 30.3135948,27.4104249 C30.2590147,27.385376 25.5301484,25.5739506 25.4827754,20.1281606 L25.4827754,20.1281606 Z M20.9498172,6.74892473 C22.2063892,5.22455001 23.0544457,3.10972618 22.8230298,1 C21.0133621,1.07374022 18.8195246,2.20533181 17.5211167,3.7262788 C16.3562145,5.07557543 15.3361561,7.22889534 15.6094959,9.29634614 C17.6299252,9.453934 19.6922784,8.26952015 20.9498172,6.74892473 L20.9498172,6.74892473 Z" id="Fill-1-Copy-9" stroke="#000000"></path>
    </g>
</svg>