<?xml version="1.0" encoding="UTF-8"?>
<svg width="32px" height="37px" viewBox="0 0 32 37" version="1.1" xmlns="http://www.w3.org/2000/svg" xmlns:xlink="http://www.w3.org/1999/xlink">
    <!-- Generator: Sketch 49.2 (51160) - http://www.bohemiancoding.com/sketch -->
    <title>Group Copy</title>
    <desc>Created with Sketch.</desc>
    <defs></defs>
    <g id="Page-1-Copy" stroke="none" stroke-width="1" fill="none" fill-rule="evenodd">
        <g id="Group-Copy">
            <polygon id="Fill-8" stroke="#000000" points="0.603619515 9.34746305 15.7303812 0.560157428 30.8571429 9.34746305 30.8571429 26.9220743 15.7303812 35.7093799 0.603619515 26.9220743"></polygon>
            <path d="M12.7597515,20.3527451 C12.7597515,21.0151484 12.6805523,21.6163424 12.5221515,22.1563451 C12.3637508,22.6963478 12.1189532,23.1607432 11.7877515,23.5495451 C11.4565499,23.9383471 11.0353541,24.240744 10.5241515,24.4567451 C10.012949,24.6727462 9.40455507,24.7807451 8.69895155,24.7807451 C8.10854859,24.7807451 7.55415414,24.6979459 7.03575155,24.5323451 C6.51734895,24.3667443 6.07815335,24.1687463 5.71815155,23.9383451 L5.99895155,22.1671451 C6.41655363,22.4551466 6.84134939,22.6855443 7.27335155,22.8583451 C7.70535371,23.031146 8.17334903,23.1175451 8.67735155,23.1175451 C9.45495543,23.1175451 10.0273497,22.8799475 10.3945515,22.4047451 C10.7617534,21.9295427 10.9453515,21.2167499 10.9453515,20.2663451 L10.9453515,10.9567451 L12.7597515,10.9567451 L12.7597515,20.3527451 Z M19.7797515,23.1391451 C20.6437559,23.1391451 21.3493488,22.9303472 21.8965515,22.5127451 C22.4437543,22.095143 22.7173515,21.5479485 22.7173515,20.8711451 C22.7173515,20.1799417 22.4545542,19.6651468 21.9289515,19.3267451 C21.4033489,18.9883434 20.5861571,18.6751466 19.4773515,18.3871451 C19.0021492,18.2575445 18.523354,18.102746 18.0409515,17.9227451 C17.5585491,17.7427442 17.1229535,17.5015466 16.7341515,17.1991451 C16.3453496,16.8967436 16.0321527,16.5223474 15.7945515,16.0759451 C15.5569504,15.6295429 15.4381515,15.0823484 15.4381515,14.4343451 C15.4381515,13.8727423 15.5461505,13.3579475 15.7621515,12.8899451 C15.9781526,12.4219428 16.2877495,12.0187468 16.6909515,11.6803451 C17.0941536,11.3419434 17.5729488,11.082746 18.1273515,10.9027451 C18.6817543,10.7227442 19.2901482,10.6327451 19.9525515,10.6327451 C21.5077593,10.6327451 22.9261451,11.0287412 24.2077515,11.8207451 L23.5597515,13.4191451 C23.041349,13.0735434 22.4653547,12.7999461 21.8317515,12.5983451 C21.1981484,12.3967441 20.5789546,12.2959451 19.9741515,12.2959451 C18.9949467,12.2959451 18.2929537,12.4903432 17.8681515,12.8791451 C17.4433494,13.2679471 17.2309515,13.7431423 17.2309515,14.3047451 C17.2309515,14.9815485 17.5117487,15.4819435 18.0733515,15.8059451 C18.6349544,16.1299467 19.4485462,16.4359437 20.5141515,16.7239451 C21.003754,16.8535458 21.4861492,17.0155441 21.9613515,17.2099451 C22.4365539,17.4043461 22.8613497,17.6563436 23.2357515,17.9659451 C23.6101534,18.2755467 23.9125504,18.6571429 24.1429515,19.1107451 C24.3733527,19.5643474 24.4885515,20.107942 24.4885515,20.7415451 C24.4885515,21.317548 24.3733527,21.8539426 24.1429515,22.3507451 C23.9125504,22.8475476 23.5885536,23.2759433 23.1709515,23.6359451 C22.7533495,23.9959469 22.2529545,24.2767441 21.6697515,24.4783451 C21.0865486,24.6799461 20.4421551,24.7807451 19.7365515,24.7807451 C18.9445476,24.7807451 18.1561555,24.6727462 17.3713515,24.4567451 C16.5865476,24.240744 15.8701548,23.9239472 15.2221515,23.5063451 L15.8269515,21.8431451 C16.4029544,22.217547 17.0077484,22.5271439 17.6413515,22.7719451 C18.2749547,23.0167463 18.9877476,23.1391451 19.7797515,23.1391451 L19.7797515,23.1391451 Z" id="JS" fill="#000000"></path>
        </g>
    </g>
</svg>