<?xml version="1.0" encoding="UTF-8"?>
<svg width="32px" height="32px" viewBox="0 0 32 32" version="1.1" xmlns="http://www.w3.org/2000/svg" xmlns:xlink="http://www.w3.org/1999/xlink">
    <!-- Generator: Sketch 49.2 (51160) - http://www.bohemiancoding.com/sketch -->
    <title>Page 1 Copy</title>
    <desc>Created with Sketch.</desc>
    <defs></defs>
    <g id="Page-1-Copy" stroke="none" stroke-width="1" fill="none" fill-rule="evenodd">
        <g transform="translate(1.000000, 1.000000)" stroke="#000000">
            <path d="M10.7979567,2.71938583 C10.336084,2.71938583 9.95746457,3.10531124 9.95746457,3.58474016 C9.95746457,4.06011302 10.3346698,4.44194488 10.7979567,4.44194488 C11.2595538,4.44194488 11.6384488,4.05896197 11.6384488,3.58474016 C11.6384488,3.10646787 11.2581398,2.71938583 10.7979567,2.71938583 Z M14.6586655,-0.470195115 C15.9385381,-0.476322382 17.2373985,-0.376396705 18.4647822,-0.172019797 C20.7296042,0.20545055 22.4541772,1.91779342 22.4541772,4.03438583 L22.4541772,10.8363543 C22.4541772,13.1131672 20.6391236,14.9662362 18.3825827,14.9662362 L11.2474252,14.9662362 C9.11898577,14.9662362 7.28498425,16.8045184 7.28498425,18.903815 L7.28498425,22.6677323 L4.32894094,22.6677323 C2.12032962,22.6677323 0.645416048,21.15764 0.046460594,18.6634656 C-0.645758908,15.7933469 -0.639948259,14.0162491 0.0462729286,11.1696105 C0.645242221,8.66851237 2.58501273,7.16450394 4.99490551,7.16450394 L7.17583071,7.16450394 L7.17583071,4.03444488 C7.17583071,1.49154359 8.13859069,0.362788128 11.1603314,-0.171109568 C12.2333829,-0.36105642 13.429938,-0.464371118 14.6586655,-0.470195115 Z M14.6586655,-0.470195115 C14.6586695,-0.470195134 14.6586736,-0.470195153 14.6586776,-0.470195172 L14.6586533,-0.470195056 C14.6586574,-0.470195076 14.6586614,-0.470195095 14.6586655,-0.470195115 Z" id="Stroke-1"></path>
            <path d="M18.8321929,25.3900669 C18.3705369,25.3900669 17.9918997,25.7726864 17.991937,26.2468583 C17.991937,26.7251904 18.3722477,27.1124488 18.8321929,27.1124488 C19.293847,27.1124488 19.672626,26.7262688 19.672626,26.2468583 C19.672626,25.7716293 19.2955054,25.3900669 18.8321929,25.3900669 Z M22.8449291,7.66439764 L22.8449291,7.16451575 L25.5257362,7.16451575 C27.6871412,7.16451575 28.9445255,8.5945324 29.5826537,11.1653387 C30.3306627,14.1714766 30.3381594,16.4047697 29.5719732,18.7038126 C28.6421523,21.5040794 27.6446947,22.667685 25.5257362,22.667685 L22.4541417,22.667685 L22.4541417,25.7978031 C22.4541417,27.8820493 20.9389466,29.208182 18.5219893,29.9076874 C15.8750245,30.6760288 13.6217851,30.6468363 11.1063756,29.9072109 C8.7127913,29.2035898 7.17573622,27.8087481 7.17573622,25.7978031 L7.17573622,18.9954803 C7.17573622,16.7545316 9.02426469,14.8654213 11.2473898,14.8654213 L18.3826654,14.8654213 C20.4988063,14.8654213 22.3449291,13.0047777 22.3449291,10.8363661 L22.3449291,7.66439764 L22.8449291,7.66439764 Z M22.8449291,7.66439764 L23.3449291,7.66439764 L23.3449291,7.66451575 L22.8449291,7.66451575 L22.8449291,7.66439764 Z" id="Stroke-3"></path>
        </g>
    </g>
</svg>