<?xml version="1.0" encoding="UTF-8"?>
<svg width="51px" height="51px" viewBox="0 0 51 51" version="1.1" xmlns="http://www.w3.org/2000/svg" xmlns:xlink="http://www.w3.org/1999/xlink">
    <!-- Generator: Sketch 40.1 (33804) - http://www.bohemiancoding.com/sketch -->
    <title>Page 1</title>
    <desc>Created with Sketch.</desc>
    <defs></defs>
    <g id="Page-1" stroke="none" stroke-width="1" fill="none" fill-rule="evenodd">
        <g id="Artboard" transform="translate(-489.000000, -99.000000)" stroke="#000000">
            <g id="Group" transform="translate(363.000000, 37.000000)">
                <g id="Page-1" transform="translate(127.000000, 63.000000)">
                    <polygon id="Fill-2" points="20.050018 22.7271069 26.5472926 20.5507068 28.6497185 26.8268374 22.1520545 29.0028482"></polygon>
                    <g id="Group-5" transform="translate(0.000000, 0.033483)">
                        <path d="M38.2108895,28.8720695 L35.0572507,29.9232824 L36.1473974,33.1937227 C36.5756694,34.5174723 35.8748607,35.9580234 34.5511111,36.3862953 C34.2785744,36.4641629 33.9671039,36.5420305 33.6945672,36.5030967 C32.6822881,36.4641629 31.7089428,35.8022881 31.3585385,34.790009 L30.2683917,31.5195687 L23.766445,33.6998622 L24.8565918,36.9703025 C25.2848637,38.2940521 24.5840551,39.7346032 23.2603055,40.1628751 C22.9877688,40.2407427 22.6762983,40.3186104 22.4037616,40.2796765 C21.3914825,40.2407427 20.4181372,39.5788679 20.0677329,38.5665888 L18.9775861,35.2961485 L15.8239473,36.3473615 C15.5514106,36.4252291 15.2399401,36.5030967 14.9674034,36.4641629 C13.9551243,36.4252291 12.981779,35.7633543 12.6313747,34.7510752 C12.2031027,33.4273255 12.9039114,31.9867745 14.227661,31.5585025 L17.3812998,30.5072896 L15.2788739,24.2389458 L12.1252351,25.2901587 C11.8526984,25.3680264 11.5412279,25.445894 11.2686912,25.4069602 C10.2564121,25.3680264 9.28306679,24.7061515 8.93266247,23.6938724 C8.50439054,22.3701228 9.20519916,20.9295717 10.5289488,20.5012998 L13.6825876,19.4500869 L12.5924409,16.1796466 C12.1641689,14.855897 12.8649775,13.4153459 14.1887272,12.987074 C15.5124768,12.558802 16.9530279,13.2596107 17.3812998,14.5833603 L18.4714465,17.8538005 L24.9733932,15.673507 L23.8832465,12.4030668 C23.4549745,11.0793172 24.1557832,9.6387661 25.4795328,9.21049416 C26.8032824,8.78222222 28.2438335,9.48303085 28.6721054,10.8067805 L29.7622522,14.0772207 L32.915891,13.0260078 C34.2396406,12.5977358 35.6801917,13.2985445 36.1084636,14.6222941 C36.5367355,15.9460437 35.8359269,17.3865948 34.5121773,17.8148667 L31.3585385,18.8660797 L33.4609644,25.1344235 L36.6146032,24.0832105 C37.9383528,23.6549386 39.3789039,24.3557472 39.8071758,25.6794969 C40.2354477,27.0032465 39.5346391,28.4437975 38.2108895,28.8720695 M46.6595268,18.0095358 C41.637065,1.26799641 34.3953759,-2.62538485 17.6538365,2.39707697 C0.912297095,7.41953878 -2.98108416,14.6612279 2.04137766,31.4027673 C7.06383947,48.1443067 14.3055286,52.0376879 31.047068,47.0152261 C47.7886074,41.9927643 51.6819886,34.7510752 46.6595268,18.0095358" id="Fill-3"></path>
                    </g>
                </g>
            </g>
        </g>
    </g>
</svg>